<svg height="283.5" width="283.5" xmlns="http://www.w3.org/2000/svg">
    <path d="M28.3 0h226.8c15.7 0 28.3 12.7 28.3 28.3v226.8c0 15.7-12.7 28.3-28.3 28.3H28.3C12.7 283.5 0 270.8 0 255.2V28.3C0 12.7 12.7 0 28.3 0z" fill="#9EBF43"/>
    <path d="M236.8 32.8s-9.4 37.2-97.4 59.4c-73 18.4-70.8 77.5-68 97.1 11.8-14.1 25.1-18.8 25.1-18.8-16.8 11.4-23.3 22.7-24.1 24.2-9.5 13.9-19.9 32.6-25.8 53.6l14.7 2.4s1.5-21.8 15.6-52.6c66.8 35 118.1-25.7 139-60 21.4-35 20.9-105.3 20.9-105.3z" fill="#fff"/>
</svg>
